<?xml version="1.0" encoding="UTF-8" standalone="no"?>
<svg
   xmlns:dc="http://purl.org/dc/elements/1.1/"
   xmlns:cc="http://creativecommons.org/ns#"
   xmlns:rdf="http://www.w3.org/1999/02/22-rdf-syntax-ns#"
   xmlns:svg="http://www.w3.org/2000/svg"
   xmlns="http://www.w3.org/2000/svg"
   xmlns:xlink="http://www.w3.org/1999/xlink"
   xmlns:sodipodi="http://sodipodi.sourceforge.net/DTD/sodipodi-0.dtd"
   xmlns:inkscape="http://www.inkscape.org/namespaces/inkscape"
   enable-background="new 0 0 612 792"
   height="27.758818"
   id="Layer_1"
   version="1.1"
   viewBox="0 0 84.860748 27.758818"
   width="84.860748"
   xml:space="preserve"
   sodipodi:docname="appstore.svg"
   inkscape:version="0.92.2 5c3e80d, 2017-08-06"><metadata
     id="metadata66"><rdf:RDF><cc:Work
         rdf:about=""><dc:format>image/svg+xml</dc:format><dc:type
           rdf:resource="http://purl.org/dc/dcmitype/StillImage" /><dc:title /></cc:Work></rdf:RDF></metadata><sodipodi:namedview
     pagecolor="#ffffff"
     bordercolor="#666666"
     borderopacity="1"
     objecttolerance="10"
     gridtolerance="10"
     guidetolerance="10"
     inkscape:pageopacity="0"
     inkscape:pageshadow="2"
     inkscape:window-width="1907"
     inkscape:window-height="967"
     id="namedview64"
     showgrid="false"
     fit-margin-top="0"
     fit-margin-left="0"
     fit-margin-right="0"
     fit-margin-bottom="0"
     inkscape:zoom="6.675088"
     inkscape:cx="27.486538"
     inkscape:cy="17.607153"
     inkscape:window-x="0"
     inkscape:window-y="30"
     inkscape:window-maximized="0"
     inkscape:current-layer="Layer_1" /><defs
     id="defs221"><linearGradient
       gradientUnits="userSpaceOnUse"
       id="linearGradient3737"
       x1="117.1919"
       x2="117.1919"
       xlink:href="#SVGID_9_"
       y1="444.28519"
       y2="557.58789" /><linearGradient
       gradientUnits="userSpaceOnUse"
       id="linearGradient3739"
       x1="88.625"
       x2="161.10451"
       xlink:href="#SVGID_10_"
       y1="472.4053"
       y2="472.4053" /></defs><g
     id="g74"><path
       style="stroke-width:0.16591248"
       d="m 84.860749,24.007204 c 0,2.071583 -1.6792,3.751613 -3.750451,3.751613 H 3.7512811 C 1.6796979,27.758817 -4.2720002e-8,26.078787 -4.2720002e-8,24.007204 V 3.7512814 C -4.2720002e-8,1.6798641 1.6798638,1.96e-7 3.7512811,1.96e-7 H 81.110298 c 2.071251,0 3.750451,1.679863904 3.750451,3.751281204 z"
       id="path7"
       inkscape:connector-curvature="0" /><g
       id="g3875"
       transform="matrix(0.16591248,0,0,0.16591248,-25.194474,-68.368385)"><path
         d="m 320.69,460.089 h -3.438 c 0,-0.473 -0.326,-1.812 -0.979,-4.018 h -4.963 c -0.673,2.17 -1.01,3.509 -1.01,4.018 h -3.232 c 0,-0.279 0.836,-2.571 2.508,-6.875 1.672,-4.304 2.508,-6.675 2.508,-7.111 h 4.061 c 0,0.408 0.758,2.744 2.272,7.009 1.514,4.265 2.273,6.59 2.273,6.977 z m -4.962,-6.069 c -1.225,-3.695 -1.838,-5.693 -1.838,-5.994 h -0.172 c 0,0.279 -0.633,2.277 -1.9,5.994 z"
         id="path209"
         style="fill:#f9f9fa"
         inkscape:connector-curvature="0" /><path
         d="m 333.221,449.766 c 0,1.712 -0.636,2.976 -1.907,3.792 -1.271,0.816 -2.83,1.225 -4.678,1.225 -0.337,0 -0.576,-0.007 -0.72,-0.021 0,1.347 0.039,3.122 0.118,5.328 h -3.019 c 0.093,-2.069 0.14,-4.508 0.14,-7.315 0,-2.578 -0.047,-4.802 -0.14,-6.671 h 1.869 c 0.265,0 0.773,-0.011 1.525,-0.032 0.752,-0.021 1.403,-0.032 1.955,-0.032 1.36,0 2.51,0.308 3.448,0.924 0.938,0.616 1.409,1.549 1.409,2.802 z m -2.772,0.59 c 0,-1.532 -1.017,-2.299 -3.051,-2.299 -0.509,0 -1.046,0.054 -1.611,0.161 0.079,1.354 0.118,2.886 0.118,4.598 0.179,0.015 0.387,0.021 0.623,0.021 2.615,0.001 3.921,-0.826 3.921,-2.481 z"
         id="path211"
         style="fill:#f9f9fa"
         inkscape:connector-curvature="0" /><path
         d="m 346.104,449.766 c 0,1.712 -0.636,2.976 -1.906,3.792 -1.271,0.816 -2.831,1.225 -4.679,1.225 -0.337,0 -0.576,-0.007 -0.72,-0.021 0,1.347 0.039,3.122 0.118,5.328 h -3.019 c 0.093,-2.069 0.14,-4.508 0.14,-7.315 0,-2.578 -0.047,-4.802 -0.14,-6.671 h 1.869 c 0.265,0 0.773,-0.011 1.525,-0.032 0.752,-0.021 1.403,-0.032 1.955,-0.032 1.36,0 2.51,0.308 3.448,0.924 0.938,0.616 1.409,1.549 1.409,2.802 z m -2.771,0.59 c 0,-1.532 -1.017,-2.299 -3.051,-2.299 -0.509,0 -1.046,0.054 -1.611,0.161 0.079,1.354 0.118,2.886 0.118,4.598 0.179,0.015 0.387,0.021 0.623,0.021 2.614,0.001 3.921,-0.826 3.921,-2.481 z"
         id="path213"
         style="fill:#f9f9fa"
         inkscape:connector-curvature="0" /><path
         d="m 367.169,452.838 c 0,2.198 -0.673,4.021 -2.02,5.468 -1.347,1.447 -3.012,2.17 -4.995,2.17 -1.891,0 -3.474,-0.664 -4.748,-1.993 -1.274,-1.328 -1.912,-3.017 -1.912,-5.064 0,-2.198 0.673,-4.021 2.02,-5.468 1.347,-1.447 3.012,-2.17 4.995,-2.17 1.891,0 3.474,0.662 4.748,1.987 1.274,1.325 1.912,3.014 1.912,5.07 z m -2.965,0.311 c 0,-1.497 -0.383,-2.711 -1.149,-3.642 -0.766,-0.931 -1.712,-1.396 -2.836,-1.396 -1.046,0 -1.934,0.469 -2.664,1.407 -0.73,0.938 -1.096,2.123 -1.096,3.556 0,1.489 0.385,2.701 1.155,3.636 0.77,0.935 1.713,1.402 2.83,1.402 1.046,0 1.934,-0.471 2.664,-1.413 0.731,-0.941 1.096,-2.125 1.096,-3.55 z"
         id="path215"
         style="fill:#f9f9fa"
         inkscape:connector-curvature="0" /><path
         d="m 381.729,460.089 h -2.653 c 0,-0.294 -0.984,-1.844 -2.954,-4.651 -2.063,-2.958 -3.237,-4.98 -3.523,-6.069 h -0.172 c 0.179,1.568 0.269,2.986 0.269,4.254 0,1.769 0.05,3.925 0.15,6.467 h -2.643 c 0.107,-2.22 0.161,-4.658 0.161,-7.315 0,-2.614 -0.054,-4.838 -0.161,-6.671 h 3.19 c 0,0.38 0.885,1.895 2.653,4.544 1.884,2.814 2.965,4.723 3.244,5.726 h 0.161 c -0.172,-1.597 -0.258,-3.029 -0.258,-4.297 0,-1.94 -0.05,-3.932 -0.15,-5.973 h 2.686 c -0.101,1.776 -0.15,4 -0.15,6.671 0,2.691 0.05,5.129 0.15,7.314 z"
         id="path217"
         style="fill:#f9f9fa"
         inkscape:connector-curvature="0" /></g><g
       id="g53"><path
         inkscape:connector-curvature="0"
         id="path20"
         style="font-style:normal;font-variant:normal;font-weight:normal;font-stretch:normal;font-size:medium;line-height:1.25;font-family:'Noto Sans Lycian';-inkscape-font-specification:'Noto Sans Lycian';letter-spacing:0px;word-spacing:0px;fill:#ffffff;fill-opacity:1;stroke:none;stroke-width:0.2852543"
         d="m 28.09643,13.38792 -1.526557,4.13953 h 3.058684 z m -0.635137,-1.108704 h 1.275845 l 3.170111,8.318061 H 30.737261 L 29.979554,18.463441 H 26.23002 l -0.757707,2.133836 H 24.28561 Z" /><path
         inkscape:connector-curvature="0"
         id="path22"
         style="font-style:normal;font-variant:normal;font-weight:normal;font-stretch:normal;font-size:medium;line-height:1.25;font-family:'Noto Sans Lycian';-inkscape-font-specification:'Noto Sans Lycian';letter-spacing:0px;word-spacing:0px;fill:#ffffff;fill-opacity:1;stroke:none;stroke-width:0.2852543"
         d="m 34.06337,19.661286 v 3.309396 h -1.030704 v -8.613343 h 1.030704 v 0.947133 q 0.32314,-0.557137 0.813421,-0.824563 0.495852,-0.272997 1.181131,-0.272997 1.13656,0 1.844124,0.902562 0.713136,0.902562 0.713136,2.373405 0,1.470843 -0.713136,2.373405 -0.707564,0.902563 -1.844124,0.902563 -0.685279,0 -1.181131,-0.267426 -0.490281,-0.272998 -0.813421,-0.830135 z m 3.48768,-2.178407 q 0,-1.130989 -0.467995,-1.771697 -0.462424,-0.646279 -1.275845,-0.646279 -0.81342,0 -1.281416,0.646279 -0.462424,0.640708 -0.462424,1.771697 0,1.130989 0.462424,1.777268 0.467996,0.640708 1.281416,0.640708 0.813421,0 1.275845,-0.640708 0.467995,-0.646279 0.467995,-1.777268 z" /><path
         inkscape:connector-curvature="0"
         id="path24"
         style="font-style:normal;font-variant:normal;font-weight:normal;font-stretch:normal;font-size:medium;line-height:1.25;font-family:'Noto Sans Lycian';-inkscape-font-specification:'Noto Sans Lycian';letter-spacing:0px;word-spacing:0px;fill:#ffffff;fill-opacity:1;stroke:none;stroke-width:0.2852543"
         d="m 41.306155,19.661286 v 3.309396 h -1.030704 v -8.613343 h 1.030704 v 0.947133 q 0.32314,-0.557137 0.813421,-0.824563 0.495852,-0.272997 1.181131,-0.272997 1.13656,0 1.844124,0.902562 0.713136,0.902562 0.713136,2.373405 0,1.470843 -0.713136,2.373405 -0.707564,0.902563 -1.844124,0.902563 -0.685279,0 -1.181131,-0.267426 -0.490281,-0.272998 -0.813421,-0.830135 z m 3.48768,-2.178407 q 0,-1.130989 -0.467995,-1.771697 -0.462424,-0.646279 -1.275845,-0.646279 -0.81342,0 -1.281416,0.646279 -0.462424,0.640708 -0.462424,1.771697 0,1.130989 0.462424,1.777268 0.467996,0.640708 1.281416,0.640708 0.813421,0 1.275845,-0.640708 0.467995,-0.646279 0.467995,-1.777268 z" /><path
         inkscape:connector-curvature="0"
         id="path26"
         style="font-style:normal;font-variant:normal;font-weight:normal;font-stretch:normal;font-size:medium;line-height:1.25;font-family:'Noto Sans Lycian';-inkscape-font-specification:'Noto Sans Lycian';letter-spacing:0px;word-spacing:0px;fill:#ffffff;fill-opacity:1;stroke:none;stroke-width:0.2852543"
         d="m 56.220723,12.552214 v 1.09756 q -0.640708,-0.306425 -1.208988,-0.456852 -0.56828,-0.150427 -1.09756,-0.150427 -0.919277,0 -1.4207,0.356567 -0.495853,0.356568 -0.495853,1.01399 0,0.551566 0.328711,0.835706 0.334283,0.278569 1.259131,0.451282 l 0.679707,0.139284 q 1.259131,0.239569 1.855268,0.846849 0.601708,0.601708 0.601708,1.615698 0,1.208988 -0.813421,1.832982 -0.807849,0.623994 -2.373405,0.623994 -0.590565,0 -1.25913,-0.133713 -0.662993,-0.133713 -1.376129,-0.395568 V 19.07072 q 0.685279,0.384425 1.342701,0.579423 0.657422,0.194998 1.292558,0.194998 0.963848,0 1.487557,-0.378853 0.523709,-0.378853 0.523709,-1.080847 0,-0.612851 -0.378853,-0.958276 -0.373282,-0.345425 -1.231274,-0.518137 l -0.685279,-0.133713 q -1.25913,-0.250712 -1.821839,-0.785564 -0.562708,-0.534852 -0.562708,-1.487557 0,-1.103132 0.77442,-1.738268 0.779993,-0.635137 2.144979,-0.635137 0.584994,0 1.192274,0.105856 0.60728,0.105856 1.242416,0.317569 z" /><path
         inkscape:connector-curvature="0"
         id="path28"
         style="font-style:normal;font-variant:normal;font-weight:normal;font-stretch:normal;font-size:medium;line-height:1.25;font-family:'Noto Sans Lycian';-inkscape-font-specification:'Noto Sans Lycian';letter-spacing:0px;word-spacing:0px;fill:#ffffff;fill-opacity:1;stroke:none;stroke-width:0.2852543"
         d="m 59.446546,12.585642 v 1.771697 h 2.11155 v 0.796706 h -2.11155 v 3.387395 q 0,0.763278 0.206141,0.980562 0.211712,0.217283 0.85242,0.217283 h 1.052989 v 0.857992 h -1.052989 q -1.186703,0 -1.637984,-0.440139 -0.451281,-0.44571 -0.451281,-1.615698 v -3.387395 h -0.752136 v -0.796706 h 0.752136 v -1.771697 z" /><path
         inkscape:connector-curvature="0"
         id="path30"
         style="font-style:normal;font-variant:normal;font-weight:normal;font-stretch:normal;font-size:medium;line-height:1.25;font-family:'Noto Sans Lycian';-inkscape-font-specification:'Noto Sans Lycian';letter-spacing:0px;word-spacing:0px;fill:#ffffff;fill-opacity:1;stroke:none;stroke-width:0.2852543"
         d="m 65.329917,15.076046 q -0.824563,0 -1.303701,0.646279 -0.479138,0.640708 -0.479138,1.760554 0,1.119846 0.473566,1.766125 0.479139,0.640708 1.309273,0.640708 0.818992,0 1.29813,-0.646279 0.479138,-0.646279 0.479138,-1.760554 0,-1.108703 -0.479138,-1.754983 -0.479138,-0.65185 -1.29813,-0.65185 z m 0,-0.869134 q 1.33713,0 2.100408,0.869134 0.763278,0.869134 0.763278,2.406833 0,1.532128 -0.763278,2.406833 -0.763278,0.869135 -2.100408,0.869135 -1.342701,0 -2.105979,-0.869135 -0.757707,-0.874705 -0.757707,-2.406833 0,-1.537699 0.757707,-2.406833 0.763278,-0.869134 2.105979,-0.869134 z" /><path
         inkscape:connector-curvature="0"
         id="path32"
         style="font-style:normal;font-variant:normal;font-weight:normal;font-stretch:normal;font-size:medium;line-height:1.25;font-family:'Noto Sans Lycian';-inkscape-font-specification:'Noto Sans Lycian';letter-spacing:0px;word-spacing:0px;fill:#ffffff;fill-opacity:1;stroke:none;stroke-width:0.2852543"
         d="m 73.503123,15.315615 q -0.172712,-0.100285 -0.378853,-0.144856 -0.20057,-0.05014 -0.44571,-0.05014 -0.869134,0 -1.33713,0.56828 -0.462424,0.562709 -0.462424,1.621269 v 3.287111 h -1.030704 v -6.239938 h 1.030704 v 0.969419 q 0.32314,-0.568281 0.841278,-0.841278 0.518138,-0.278568 1.25913,-0.278568 0.105856,0 0.233998,0.01671 0.128141,0.01114 0.28414,0.039 z" /><path
         inkscape:connector-curvature="0"
         id="path34"
         style="font-style:normal;font-variant:normal;font-weight:normal;font-stretch:normal;font-size:medium;line-height:1.25;font-family:'Noto Sans Lycian';-inkscape-font-specification:'Noto Sans Lycian';letter-spacing:0px;word-spacing:0px;fill:#ffffff;fill-opacity:1;stroke:none;stroke-width:0.2852543"
         d="m 79.681774,17.221024 v 0.501424 h -4.713382 q 0.06686,1.058561 0.635136,1.615698 0.573852,0.551566 1.593413,0.551566 0.590566,0 1.142132,-0.144855 0.557137,-0.144856 1.103132,-0.434568 v 0.969419 q -0.551566,0.233998 -1.130989,0.356568 -0.579423,0.122571 -1.17556,0.122571 -1.493128,0 -2.367834,-0.869135 -0.869134,-0.869134 -0.869134,-2.351119 0,-1.532128 0.824564,-2.429119 0.830134,-0.902562 2.23412,-0.902562 1.259131,0 1.98898,0.81342 0.735422,0.807849 0.735422,2.200692 z M 78.656641,16.92017 q -0.01114,-0.841277 -0.473567,-1.342701 -0.456852,-0.501423 -1.214559,-0.501423 -0.857992,0 -1.376129,0.484709 -0.512567,0.48471 -0.590566,1.364987 z" /></g><g
       style="fill:#ffffff"
       transform="matrix(0.03613958,0,0,0.03613958,4.5729696,4.6070997)"
       id="g3799"><path
         style="fill:#ffffff"
         inkscape:connector-curvature="0"
         d="m 448.7,174.8 c -8,6.8 -16,12.7 -22.9,19.6 -35.7,35.9 -37.9,89.7 -20.2,126.7 11.3,23.6 29.2,40.6 52.6,52 3.6,1.8 4.4,3.3 3,7.2 -11.4,31.4 -26.9,60.5 -48.2,86.4 -6.6,8.1 -13.5,16.1 -21,23.4 -15.3,14.9 -33.6,21.4 -54.9,16.7 -9.1,-2 -18.3,-4.3 -26.7,-8.1 -26.1,-11.7 -52.3,-12.8 -79.2,-3.5 -11.8,4.1 -23.5,8.5 -35.5,11.7 -18.7,5.1 -35.2,-0.1 -49.5,-12.8 -21.4,-18.8 -38,-41.3 -52.3,-65.8 -18.4,-31.7 -30.6,-65.8 -37.4,-101.7 -6.7,-35.4 -7.6,-70.8 3.2,-105.8 7,-22.6 18,-43 35.4,-59.4 27.4,-25.9 59.7,-38.1 97.3,-32.3 13.5,2.1 26.8,6.9 39.4,12.4 17.4,7.5 33.9,10.1 51.9,1.8 15.2,-7 31.2,-12.6 47.9,-15.4 33.1,-5.5 63.1,1.9 90.7,20.6 10.7,7.1 19.8,15.7 26.4,26.3 z"
         id="path3795" /><path
         style="fill:#ffffff"
         inkscape:connector-curvature="0"
         d="m 357.7,4.3 c 0.8,16 -1.5,30.8 -6.1,45.3 -7.9,24.9 -24.2,43.6 -44.8,58.3 -13.4,9.5 -29.1,13.5 -45.8,13.2 -3.9,-0.1 -5,-1.4 -5.1,-5.2 -0.6,-25.7 7.4,-48.4 23.4,-68.4 19.1,-23.7 43.9,-37.6 73.8,-42.9 1.3,-0.1 2.6,-0.1 4.6,-0.3 z"
         id="path3797" /></g></g></svg>